<mxfile host="app.diagrams.net" modified="2024-04-23T17:13:01.724Z" agent="Mozilla/5.0 (X11; Linux x86_64) AppleWebKit/537.36 (KHTML, like Gecko) Chrome/125.0.0.0 Safari/537.36 Edg/125.0.0.0" etag="tv9q08t75niz5fAeIJVp" scale="1" border="0" version="24.2.8" type="device">
  <diagram name="Página-1" id="GqaS2yzh_YFpKsmkKtEa">
    <mxGraphModel dx="1036" dy="565" grid="1" gridSize="10" guides="1" tooltips="1" connect="1" arrows="1" fold="1" page="1" pageScale="1" pageWidth="827" pageHeight="1169" math="0" shadow="0">
      <root>
        <mxCell id="0" />
        <mxCell id="1" parent="0" />
        <mxCell id="IIeFJdCi4ttDjo09-xvz-28" value="&lt;p style=&quot;line-height: 120%; margin-top: 120px; margin-bottom: 0px; padding-bottom: 0px; margin-right: 0px;&quot;&gt;&lt;b&gt;&lt;font style=&quot;font-size: 14px;&quot;&gt;Infraestrutura&lt;/font&gt;&lt;/b&gt;&lt;/p&gt;" style="whiteSpace=wrap;html=1;fillColor=#d5e8d4;strokeColor=#82b366;fillStyle=hatch;" parent="1" vertex="1">
          <mxGeometry x="213.83" y="313.91" width="231.93" height="166.09" as="geometry" />
        </mxCell>
        <mxCell id="IIeFJdCi4ttDjo09-xvz-21" style="edgeStyle=orthogonalEdgeStyle;rounded=0;orthogonalLoop=1;jettySize=auto;html=1;entryX=0.5;entryY=0;entryDx=0;entryDy=0;dashed=1;" parent="1" source="IIeFJdCi4ttDjo09-xvz-18" target="IIeFJdCi4ttDjo09-xvz-20" edge="1">
          <mxGeometry relative="1" as="geometry" />
        </mxCell>
        <mxCell id="IIeFJdCi4ttDjo09-xvz-18" value="Utilizadores" style="sketch=0;outlineConnect=0;gradientColor=none;fontColor=#545B64;strokeColor=none;fillColor=#879196;dashed=0;verticalLabelPosition=bottom;verticalAlign=top;align=center;html=1;fontSize=12;fontStyle=0;aspect=fixed;shape=mxgraph.aws4.illustration_users;pointerEvents=1" parent="1" vertex="1">
          <mxGeometry x="304.58000000000004" y="140" width="50" height="50" as="geometry" />
        </mxCell>
        <mxCell id="IIeFJdCi4ttDjo09-xvz-19" value="" style="outlineConnect=0;dashed=0;verticalLabelPosition=bottom;verticalAlign=top;align=center;html=1;shape=mxgraph.aws3.corporate_data_center;fillColor=#96C0FF;strokeColor=#36393d;" parent="1" vertex="1">
          <mxGeometry x="260" y="350" width="44.29" height="60" as="geometry" />
        </mxCell>
        <mxCell id="IIeFJdCi4ttDjo09-xvz-22" style="edgeStyle=orthogonalEdgeStyle;rounded=0;orthogonalLoop=1;jettySize=auto;html=1;curved=0;dashed=1;fillColor=#f5f5f5;strokeColor=#666666;" parent="1" source="IIeFJdCi4ttDjo09-xvz-20" target="IIeFJdCi4ttDjo09-xvz-19" edge="1">
          <mxGeometry relative="1" as="geometry" />
        </mxCell>
        <mxCell id="IIeFJdCi4ttDjo09-xvz-20" value="&lt;b&gt;&lt;font style=&quot;font-size: 13px;&quot;&gt;Load Balancer / Reverse Proxy&lt;/font&gt;&lt;/b&gt;" style="rounded=1;whiteSpace=wrap;html=1;fillColor=#ffe6cc;strokeColor=#d79b00;fillStyle=hatch;strokeWidth=1;perimeterSpacing=1;glass=0;" parent="1" vertex="1">
          <mxGeometry x="212.29" y="240" width="235" height="40" as="geometry" />
        </mxCell>
        <mxCell id="IIeFJdCi4ttDjo09-xvz-24" value="" style="outlineConnect=0;dashed=0;verticalLabelPosition=bottom;verticalAlign=top;align=center;html=1;shape=mxgraph.aws3.corporate_data_center;fillColor=#81EB3B;strokeColor=#36393d;" parent="1" vertex="1">
          <mxGeometry x="360" y="350" width="44.29" height="60" as="geometry" />
        </mxCell>
        <mxCell id="8C0ys7V4k4Ei_hw-86kY-1" value="&lt;font style=&quot;font-size: 11px;&quot;&gt;Versão&lt;/font&gt;&lt;div style=&quot;font-size: 11px;&quot;&gt;&lt;span style=&quot;background-color: initial;&quot;&gt;&lt;font style=&quot;font-size: 11px;&quot;&gt;atual&lt;/font&gt;&lt;/span&gt;&lt;/div&gt;" style="text;html=1;align=center;verticalAlign=middle;resizable=0;points=[];autosize=1;strokeColor=none;fillColor=none;" parent="1" vertex="1">
          <mxGeometry x="252.14" y="410" width="60" height="40" as="geometry" />
        </mxCell>
        <mxCell id="8C0ys7V4k4Ei_hw-86kY-2" value="&lt;font style=&quot;font-size: 11px;&quot;&gt;Versão&lt;/font&gt;&lt;div style=&quot;font-size: 11px;&quot;&gt;&lt;span style=&quot;background-color: initial;&quot;&gt;&lt;font style=&quot;font-size: 11px;&quot;&gt;atualizada&lt;/font&gt;&lt;/span&gt;&lt;/div&gt;" style="text;html=1;align=center;verticalAlign=middle;resizable=0;points=[];autosize=1;strokeColor=none;fillColor=none;" parent="1" vertex="1">
          <mxGeometry x="347.15" y="410" width="70" height="40" as="geometry" />
        </mxCell>
      </root>
    </mxGraphModel>
  </diagram>
</mxfile>
